# xmcd
#
# Track frame offsets: 
#        150
#        19623
#        37537
#        54261
#        67511
#        77861
#        91915
#        102991
#        115096
#        128236
#        143223
#        154701
#        163909
#        185182
#        204141
#
# Disc length: 2791 seconds
#
# Revision: 0
# Processed by: cddbd v1.4PL0 Copyright (c) Steve Scherf et al.
# Submitted via: ExactAudioCopy v0.90b4
#
DISCID=b50ae50f
DTITLE=Charlie Musselwhite - Darkest Hour
DYEAR=2003
DGENRE=Blues, Acoustic 
TTITLE0=Baby-O
TTITLE1=If I Should Have Bad Luck
TTITLE2=I Had Trouble
TTITLE3=Stingaree
TTITLE4=Blues Up The River
TTITLE5=In Your Darkest Hour
TTITLE6=My Good To See
TTITLE7=Mississipi Blues
TTITLE8=Clarksdale Boogie
TTITLE9=My Road Lies In Darkness
TTITLE10=The Muscle In My Arm
TTITLE11=Blues For John Lee
TTITLE12=All Through The Night
TTITLE13=Please Remember Me
TTITLE14=Durant Station
EXTD=
EXTT0=
EXTT1=
EXTT2=
EXTT3=
EXTT4=
EXTT5=
EXTT6=
EXTT7=
EXTT8=
EXTT9=
EXTT10=
EXTT11=
EXTT12=
EXTT13=
EXTT14=
PLAYORDER=
